<?xml version="1.0" encoding="UTF-8" standalone="no"?>
<!-- Created with Inkscape (http://www.inkscape.org/) -->
<svg xmlns:dc="http://purl.org/dc/elements/1.1/" xmlns:cc="http://web.resource.org/cc/" xmlns:rdf="http://www.w3.org/1999/02/22-rdf-syntax-ns#" xmlns:svg="http://www.w3.org/2000/svg" xmlns="http://www.w3.org/2000/svg" xmlns:xlink="http://www.w3.org/1999/xlink" xmlns:sodipodi="http://sodipodi.sourceforge.net/DTD/sodipodi-0.dtd" xmlns:inkscape="http://www.inkscape.org/namespaces/inkscape" height="314.72815" id="svg1354" inkscape:version="0.45.1" sodipodi:docbase="/Users/johnolsen/Desktop/openclipart-0.20-pre/recovered-zerobyte-files/unsorted" sodipodi:docname="apple_with_worm_dan_ger_01r.svg" sodipodi:version="0.32" width="300.02762" inkscape:output_extension="org.inkscape.output.svg.inkscape" version="1.0">
  <defs id="defs1357">
    <linearGradient id="linearGradient21671">
      <stop id="stop21673" offset="0.0000000" style="stop-color:#e0bc6e;stop-opacity:1.0000000;"/>
      <stop id="stop21677" offset="0.50000000" style="stop-color:#f9fbea;stop-opacity:1.0000000;"/>
      <stop id="stop21675" offset="1.0000000" style="stop-color:#e5c973;stop-opacity:1.0000000;"/>
    </linearGradient>
    <linearGradient id="linearGradient20875">
      <stop id="stop20877" offset="0.0000000" style="stop-color:#707070;stop-opacity:1.0000000;"/>
      <stop id="stop20879" offset="1.0000000" style="stop-color:#000000;stop-opacity:1.0000000;"/>
    </linearGradient>
    <linearGradient id="linearGradient20822">
      <stop id="stop20824" offset="0.0000000" style="stop-color:#efc9c6;stop-opacity:1.0000000;"/>
      <stop id="stop20826" offset="1.0000000" style="stop-color:#d2837d;stop-opacity:1.0000000;"/>
    </linearGradient>
    <linearGradient id="linearGradient18595">
      <stop id="stop18597" offset="0.0000000" style="stop-color:#e2e99a;stop-opacity:0.61224490;"/>
      <stop id="stop18601" offset="0.50000000" style="stop-color:#e8e99a;stop-opacity:1.0000000;"/>
      <stop id="stop18599" offset="1.0000000" style="stop-color:#e5ef8b;stop-opacity:1.0000000;"/>
    </linearGradient>
    <linearGradient id="linearGradient16331">
      <stop id="stop16333" offset="0.0000000" style="stop-color:#b87018;stop-opacity:0.44705883;"/>
      <stop id="stop16335" offset="1.0000000" style="stop-color:#e9bd42;stop-opacity:0.22352941;"/>
    </linearGradient>
    <linearGradient id="linearGradient16301">
      <stop id="stop16303" offset="0.0000000" style="stop-color:#e1e899;stop-opacity:1.0000000;"/>
      <stop id="stop16305" offset="1.0000000" style="stop-color:#f7fadb;stop-opacity:1.0000000;"/>
    </linearGradient>
    <linearGradient id="linearGradient16293">
      <stop id="stop16295" offset="0.0000000" style="stop-color:#b8a718;stop-opacity:0.44705883;"/>
      <stop id="stop16297" offset="1.0000000" style="stop-color:#e9e742;stop-opacity:0.22448979;"/>
    </linearGradient>
    <linearGradient id="linearGradient16285">
      <stop id="stop16287" offset="0.0000000" style="stop-color:#998643;stop-opacity:1.0000000;"/>
      <stop id="stop16289" offset="1.0000000" style="stop-color:#999043;stop-opacity:0.0000000;"/>
    </linearGradient>
    <linearGradient id="linearGradient13979">
      <stop id="stop13981" offset="0" style="stop-color:#ffcfcf;stop-opacity:1;"/>
      <stop id="stop13983" offset="1" style="stop-color:#ffcfcf;stop-opacity:0;"/>
    </linearGradient>
    <linearGradient id="linearGradient13971">
      <stop id="stop13973" offset="0.0000000" style="stop-color:#070001;stop-opacity:1.0000000;"/>
      <stop id="stop13975" offset="1.0000000" style="stop-color:#620916;stop-opacity:1.0000000;"/>
    </linearGradient>
    <linearGradient id="linearGradient8822">
      <stop id="stop8824" offset="0" style="stop-color:#fefefe;stop-opacity:1;"/>
      <stop id="stop8826" offset="1" style="stop-color:#fefefe;stop-opacity:0;"/>
    </linearGradient>
    <linearGradient id="linearGradient8814">
      <stop id="stop8816" offset="0" style="stop-color:#8d2025;stop-opacity:1;"/>
      <stop id="stop8818" offset="1.0000000" style="stop-color:#8d2025;stop-opacity:1.0000000;"/>
    </linearGradient>
    <linearGradient id="linearGradient8080">
      <stop id="stop8082" offset="0" style="stop-color:#420202;stop-opacity:1;"/>
      <stop id="stop8084" offset="1" style="stop-color:#420202;stop-opacity:0;"/>
    </linearGradient>
    <linearGradient id="linearGradient7346">
      <stop id="stop7348" offset="0.0000000" style="stop-color:#440000;stop-opacity:0.37755102;"/>
      <stop id="stop7350" offset="1" style="stop-color:#430000;stop-opacity:1.0000000"/>
    </linearGradient>
    <linearGradient id="linearGradient6590">
      <stop id="stop6592" offset="0.0000000" style="stop-color:#c04958;stop-opacity:1.0000000;"/>
      <stop id="stop6598" offset="0.50000000" style="stop-color:#be4656;stop-opacity:0.74489796;"/>
      <stop id="stop6594" offset="1.0000000" style="stop-color:#bd4253;stop-opacity:0.0000000;"/>
    </linearGradient>
    <linearGradient id="linearGradient6582">
      <stop id="stop6584" offset="0" style="stop-color:#000000;stop-opacity:1;"/>
      <stop id="stop6586" offset="1" style="stop-color:#000000;stop-opacity:0;"/>
    </linearGradient>
    <linearGradient id="linearGradient5832">
      <stop id="stop5834" offset="0.0000000" style="stop-color:#000000;stop-opacity:1.0000000;"/>
      <stop id="stop5836" offset="1.0000000" style="stop-color:#380c0e;stop-opacity:0.0000000;"/>
    </linearGradient>
    <linearGradient id="linearGradient3643">
      <stop id="stop3645" offset="0.0000000" style="stop-color:#7f1c21;stop-opacity:1.0000000;"/>
      <stop id="stop3647" offset="1.0000000" style="stop-color:#b0161d;stop-opacity:1.0000000;"/>
    </linearGradient>
    <radialGradient cx="48.50449" cy="65.67099" fx="48.50449" fy="65.67099" gradientTransform="matrix(0.396859,7.06019e-2,-2.777794e-2,0.156142,35.79646,52.88718)" gradientUnits="userSpaceOnUse" id="radialGradient8878" inkscape:collect="always" r="42.887432" xlink:href="#linearGradient8822"/>
    <radialGradient cx="40.423332" cy="140.83504" fx="40.423332" fy="140.83504" gradientTransform="matrix(1.974909,-0.75203,0.664289,1.744492,-132.9643,-72.54759)" gradientUnits="userSpaceOnUse" id="radialGradient8881" inkscape:collect="always" r="18.794815" xlink:href="#linearGradient6590"/>
    <radialGradient cx="62.484726" cy="67.062752" fx="62.484726" fy="67.062752" gradientTransform="matrix(1.864309,-0.111884,2.142618e-2,0.357021,-50.5891,48.78081)" gradientUnits="userSpaceOnUse" id="radialGradient8885" inkscape:collect="always" r="42.887432" xlink:href="#linearGradient8822"/>
    <radialGradient cx="61.331074" cy="96.750336" fx="61.331074" fy="96.750336" gradientTransform="matrix(2.284827,0.320645,-0.134288,0.9569,-65.80743,-15.18181)" gradientUnits="userSpaceOnUse" id="radialGradient8889" inkscape:collect="always" r="28.270758" xlink:href="#linearGradient8080"/>
    <radialGradient cx="86.173874" cy="177.76193" fx="86.173874" fy="177.76193" gradientTransform="matrix(2.111825,-9.891897e-2,1.849545e-2,0.39486,-99.08371,102.6595)" gradientUnits="userSpaceOnUse" id="radialGradient8892" inkscape:collect="always" r="34.792561" xlink:href="#linearGradient5832"/>
    <linearGradient gradientUnits="userSpaceOnUse" id="linearGradient8895" inkscape:collect="always" x1="89.084457" x2="82.966072" xlink:href="#linearGradient3643" y1="139.21457" y2="60.822758"/>
    <linearGradient gradientUnits="userSpaceOnUse" id="linearGradient13977" inkscape:collect="always" x1="80.451797" x2="83.511337" xlink:href="#linearGradient13971" y1="40.503368" y2="42.510963"/>
    <radialGradient cx="86.065315" cy="33.995708" fx="86.065315" fy="33.995708" gradientTransform="matrix(-1.633335,-1.061337,0.908849,-1.398664,195.7418,172.8886)" gradientUnits="userSpaceOnUse" id="radialGradient13987" inkscape:collect="always" r="2.7279859" xlink:href="#linearGradient13971"/>
    <radialGradient cx="280.54092" cy="120.56979" fx="280.54092" fy="120.56979" gradientTransform="matrix(0.372615,0.437996,-0.245668,0.208997,46.3635,-21.87512)" gradientUnits="userSpaceOnUse" id="radialGradient17089" inkscape:collect="always" r="8.1621428" xlink:href="#linearGradient16293"/>
    <radialGradient cx="288.28595" cy="114.64095" fx="288.28595" fy="114.64095" gradientTransform="matrix(1.161036,0,0,2.279391,-202.87,-145.6333)" gradientUnits="userSpaceOnUse" id="radialGradient17092" inkscape:collect="always" r="8.1621428" xlink:href="#linearGradient16293"/>
    <radialGradient cx="259.35349" cy="121.60902" fx="259.35349" fy="121.60902" gradientTransform="matrix(1.58392,0.722404,-0.310992,0.827798,-272.8859,-158.8299)" gradientUnits="userSpaceOnUse" id="radialGradient17095" inkscape:collect="always" r="8.1621428" xlink:href="#linearGradient16293"/>
    <radialGradient cx="294.08792" cy="96.092392" fx="294.08792" fy="96.092392" gradientTransform="matrix(-0.377055,-0.358713,1.025253,-1.077677,149.5455,288.5998)" gradientUnits="userSpaceOnUse" id="radialGradient17101" inkscape:collect="always" r="8.1621428" xlink:href="#linearGradient16331"/>
    <radialGradient cx="256.1087" cy="103.76028" fx="256.1087" fy="103.76028" gradientTransform="matrix(0.367168,0.483351,-1.225841,0.931188,130.0035,-127.2121)" gradientUnits="userSpaceOnUse" id="radialGradient17104" inkscape:collect="always" r="8.1621428" xlink:href="#linearGradient16293"/>
    <linearGradient gradientTransform="translate(-192.2522,-79.49671)" gradientUnits="userSpaceOnUse" id="linearGradient17107" inkscape:collect="always" x1="286.4371" x2="307.3588" xlink:href="#linearGradient16301" y1="196.73601" y2="183.21617"/>
    <linearGradient gradientTransform="translate(-192.2522,-79.49671)" gradientUnits="userSpaceOnUse" id="linearGradient17111" inkscape:collect="always" x1="315.39673" x2="326.10043" xlink:href="#linearGradient18595" y1="181.11861" y2="182.88014"/>
    <radialGradient cx="251.51294" cy="79.891762" fx="251.51294" fy="79.891762" gradientTransform="matrix(-0.14894,-0.582007,1.808962,-0.462926,29.57558,296.716)" gradientUnits="userSpaceOnUse" id="radialGradient18567" inkscape:collect="always" r="8.1621428" xlink:href="#linearGradient16331"/>
    <linearGradient gradientTransform="translate(-192.2522,-79.49671)" gradientUnits="userSpaceOnUse" id="linearGradient19339" inkscape:collect="always" x1="286.4371" x2="307.3588" xlink:href="#linearGradient16301" y1="196.73601" y2="183.21617"/>
    <radialGradient cx="256.1087" cy="103.76028" fx="256.1087" fy="103.76028" gradientTransform="matrix(0.367168,0.483351,-1.225841,0.931188,130.0035,-127.2121)" gradientUnits="userSpaceOnUse" id="radialGradient19341" inkscape:collect="always" r="8.1621428" xlink:href="#linearGradient16293"/>
    <radialGradient cx="259.35349" cy="121.60902" fx="259.35349" fy="121.60902" gradientTransform="matrix(1.58392,0.722404,-0.310992,0.827798,-272.8859,-158.8299)" gradientUnits="userSpaceOnUse" id="radialGradient19343" inkscape:collect="always" r="8.1621428" xlink:href="#linearGradient16293"/>
    <radialGradient cx="288.28595" cy="114.64095" fx="288.28595" fy="114.64095" gradientTransform="matrix(1.161036,0,0,2.279391,-202.87,-145.6333)" gradientUnits="userSpaceOnUse" id="radialGradient19345" inkscape:collect="always" r="8.1621428" xlink:href="#linearGradient16293"/>
    <radialGradient cx="280.54092" cy="120.56979" fx="280.54092" fy="120.56979" gradientTransform="matrix(0.372615,0.437996,-0.245668,0.208997,46.3635,-21.87512)" gradientUnits="userSpaceOnUse" id="radialGradient19347" inkscape:collect="always" r="8.1621428" xlink:href="#linearGradient16293"/>
    <linearGradient gradientTransform="translate(-192.2522,-79.49671)" gradientUnits="userSpaceOnUse" id="linearGradient19349" inkscape:collect="always" x1="315.39673" x2="326.10043" xlink:href="#linearGradient18595" y1="181.11861" y2="182.88014"/>
    <radialGradient cx="294.08792" cy="96.092392" fx="294.08792" fy="96.092392" gradientTransform="matrix(-0.377055,-0.358713,1.025253,-1.077677,149.5455,288.5998)" gradientUnits="userSpaceOnUse" id="radialGradient19351" inkscape:collect="always" r="8.1621428" xlink:href="#linearGradient16331"/>
    <radialGradient cx="251.51294" cy="79.891762" fx="251.51294" fy="79.891762" gradientTransform="matrix(-0.14894,-0.582007,1.808962,-0.462926,29.57558,296.716)" gradientUnits="userSpaceOnUse" id="radialGradient19353" inkscape:collect="always" r="8.1621428" xlink:href="#linearGradient16331"/>
    <radialGradient cx="382.89407" cy="188.12128" fx="382.89407" fy="188.12128" gradientTransform="matrix(0.772157,0,0,0.852163,85.64534,27.74941)" gradientUnits="userSpaceOnUse" id="radialGradient20828" inkscape:collect="always" r="13.986498" xlink:href="#linearGradient20822"/>
    <radialGradient cx="371.52542" cy="194.62422" fx="371.52542" fy="194.62422" gradientTransform="matrix(0.772157,0,0,0.884333,122.4193,46.93089)" gradientUnits="userSpaceOnUse" id="radialGradient20830" inkscape:collect="always" r="13.557914" xlink:href="#linearGradient20822"/>
    <radialGradient cx="357.24521" cy="199.2504" fx="357.24521" fy="199.2504" gradientTransform="matrix(0.772157,0,0,0.941067,123.097,34.7493)" gradientUnits="userSpaceOnUse" id="radialGradient20832" inkscape:collect="always" r="12.768574" xlink:href="#linearGradient20822"/>
    <radialGradient cx="343.59579" cy="201.25719" fx="343.59579" fy="201.25719" gradientTransform="matrix(0.772157,0,0,0.993181,123.8957,23.99462)" gradientUnits="userSpaceOnUse" id="radialGradient20834" inkscape:collect="always" r="12.060818" xlink:href="#linearGradient20822"/>
    <radialGradient cx="382.89407" cy="188.12128" fx="382.89407" fy="188.12128" gradientTransform="matrix(0.766464,-9.359629e-2,0.103295,0.845879,104.3758,89.72424)" gradientUnits="userSpaceOnUse" id="radialGradient20838" inkscape:collect="always" r="13.986498" xlink:href="#linearGradient20822"/>
    <radialGradient cx="382.89407" cy="188.12128" fx="382.89407" fy="188.12128" gradientTransform="matrix(0.72195,-0.273887,0.302266,0.796754,90.55121,160.7287)" gradientUnits="userSpaceOnUse" id="radialGradient20842" inkscape:collect="always" r="13.986498" xlink:href="#linearGradient20822"/>
    <radialGradient cx="382.89407" cy="188.12128" fx="382.89407" fy="188.12128" gradientTransform="matrix(0.824332,-0.566105,0.624762,0.909743,-22.82726,272.8307)" gradientUnits="userSpaceOnUse" id="radialGradient20846" inkscape:collect="always" r="13.986498" xlink:href="#linearGradient20822"/>
    <radialGradient cx="408.60416" cy="160.31364" fx="408.60416" fy="160.31364" gradientTransform="matrix(0.890517,3.458723e-7,-2.270184e-7,0.584504,65.60371,104.3992)" gradientUnits="userSpaceOnUse" id="radialGradient20873" inkscape:collect="always" r="9.742897" xlink:href="#linearGradient20875"/>
    <radialGradient cx="400.70639" cy="167.38881" fx="400.70639" fy="167.38881" gradientTransform="matrix(1,0,0,0.723404,0,46.4818)" gradientUnits="userSpaceOnUse" id="radialGradient20889" inkscape:collect="always" r="2.2465944" xlink:href="#linearGradient20875"/>
    <radialGradient cx="343.59579" cy="201.25719" fx="343.59579" fy="201.25719" gradientTransform="matrix(0.768693,7.305378e-2,-9.396573e-2,0.988726,134.1814,0.360248)" gradientUnits="userSpaceOnUse" id="radialGradient21639" inkscape:collect="always" r="12.060818" xlink:href="#linearGradient20822"/>
    <radialGradient cx="343.59579" cy="201.25719" fx="343.59579" fy="201.25719" gradientTransform="matrix(0.761378,0.128564,-0.165365,0.979318,142.0529,-17.79711)" gradientUnits="userSpaceOnUse" id="radialGradient21643" inkscape:collect="always" r="12.060818" xlink:href="#linearGradient20822"/>
    <radialGradient cx="343.59579" cy="201.25719" fx="343.59579" fy="201.25719" gradientTransform="matrix(0.752904,0.171348,-0.220396,0.968419,110.2146,-57.84568)" gradientUnits="userSpaceOnUse" id="radialGradient21647" inkscape:collect="always" r="12.060818" xlink:href="#linearGradient20822"/>
    <radialGradient cx="343.59579" cy="201.25719" fx="343.59579" fy="201.25719" gradientTransform="matrix(0.715919,0.289282,-0.372088,0.920847,191.4979,-63.88675)" gradientUnits="userSpaceOnUse" id="radialGradient21651" inkscape:collect="always" r="12.060818" xlink:href="#linearGradient20822"/>
    <radialGradient cx="343.59579" cy="201.25719" fx="343.59579" fy="201.25719" gradientTransform="matrix(0.630162,0.446228,-0.573959,0.810543,255.7404,-100.052)" gradientUnits="userSpaceOnUse" id="radialGradient21655" inkscape:collect="always" r="12.060818" xlink:href="#linearGradient20822"/>
    <linearGradient gradientTransform="translate(-187.9258,-67.05845)" gradientUnits="userSpaceOnUse" id="linearGradient21669" inkscape:collect="always" x1="538.55725" x2="553.13037" xlink:href="#linearGradient21671" y1="300.42413" y2="275.50394"/>
    <linearGradient gradientTransform="translate(-187.9258,-67.05845)" gradientUnits="userSpaceOnUse" id="linearGradient22430" inkscape:collect="always" x1="538.55725" x2="553.13037" xlink:href="#linearGradient21671" y1="300.42413" y2="275.50394"/>
    <radialGradient cx="343.59579" cy="201.25719" fx="343.59579" fy="201.25719" gradientTransform="matrix(0.630162,0.446228,-0.573959,0.810543,255.7404,-100.052)" gradientUnits="userSpaceOnUse" id="radialGradient22432" inkscape:collect="always" r="12.060818" xlink:href="#linearGradient20822"/>
    <radialGradient cx="343.59579" cy="201.25719" fx="343.59579" fy="201.25719" gradientTransform="matrix(0.715919,0.289282,-0.372088,0.920847,191.4979,-63.88675)" gradientUnits="userSpaceOnUse" id="radialGradient22434" inkscape:collect="always" r="12.060818" xlink:href="#linearGradient20822"/>
    <radialGradient cx="343.59579" cy="201.25719" fx="343.59579" fy="201.25719" gradientTransform="matrix(0.761378,0.128564,-0.165365,0.979318,142.0529,-17.79711)" gradientUnits="userSpaceOnUse" id="radialGradient22436" inkscape:collect="always" r="12.060818" xlink:href="#linearGradient20822"/>
    <radialGradient cx="343.59579" cy="201.25719" fx="343.59579" fy="201.25719" gradientTransform="matrix(0.768693,7.305378e-2,-9.396573e-2,0.988726,134.1814,0.360248)" gradientUnits="userSpaceOnUse" id="radialGradient22438" inkscape:collect="always" r="12.060818" xlink:href="#linearGradient20822"/>
    <radialGradient cx="343.59579" cy="201.25719" fx="343.59579" fy="201.25719" gradientTransform="matrix(0.772157,0,0,0.993181,123.8957,23.99462)" gradientUnits="userSpaceOnUse" id="radialGradient22440" inkscape:collect="always" r="12.060818" xlink:href="#linearGradient20822"/>
    <radialGradient cx="357.24521" cy="199.2504" fx="357.24521" fy="199.2504" gradientTransform="matrix(0.772157,0,0,0.941067,123.097,34.7493)" gradientUnits="userSpaceOnUse" id="radialGradient22442" inkscape:collect="always" r="12.768574" xlink:href="#linearGradient20822"/>
    <radialGradient cx="371.52542" cy="194.62422" fx="371.52542" fy="194.62422" gradientTransform="matrix(0.772157,0,0,0.884333,122.4193,46.93089)" gradientUnits="userSpaceOnUse" id="radialGradient22444" inkscape:collect="always" r="13.557914" xlink:href="#linearGradient20822"/>
    <radialGradient cx="382.89407" cy="188.12128" fx="382.89407" fy="188.12128" gradientTransform="matrix(0.766464,-9.359629e-2,0.103295,0.845879,104.3758,89.72424)" gradientUnits="userSpaceOnUse" id="radialGradient22446" inkscape:collect="always" r="13.986498" xlink:href="#linearGradient20822"/>
    <radialGradient cx="382.89407" cy="188.12128" fx="382.89407" fy="188.12128" gradientTransform="matrix(0.72195,-0.273887,0.302266,0.796754,90.55121,160.7287)" gradientUnits="userSpaceOnUse" id="radialGradient22448" inkscape:collect="always" r="13.986498" xlink:href="#linearGradient20822"/>
    <radialGradient cx="408.60416" cy="160.31364" fx="408.60416" fy="160.31364" gradientTransform="matrix(0.890517,3.458723e-7,-2.270184e-7,0.584504,65.60371,104.3992)" gradientUnits="userSpaceOnUse" id="radialGradient22450" inkscape:collect="always" r="9.742897" xlink:href="#linearGradient20875"/>
    <radialGradient cx="400.70639" cy="167.38881" fx="400.70639" fy="167.38881" gradientTransform="matrix(1,0,0,0.723404,0,46.4818)" gradientUnits="userSpaceOnUse" id="radialGradient22452" inkscape:collect="always" r="2.2465944" xlink:href="#linearGradient20875"/>
  </defs>
  <sodipodi:namedview bordercolor="#666666" borderopacity="1.0" id="base" inkscape:current-layer="svg1354" inkscape:cx="230.37461" inkscape:cy="186.76519" inkscape:pageopacity="0.0" inkscape:pageshadow="2" inkscape:window-height="703" inkscape:window-width="1017" inkscape:window-x="0" inkscape:window-y="0" inkscape:zoom="0.65376732" pagecolor="#ffffff" showborder="true"/>
  <g id="g1456" transform="translate(-16.024958,-8.1289227)">
    <g id="g14551" transform="matrix(2.276961,0,0,2.276961,-37.8774,-62.62277)">
      <path d="M 136.55048,70.280418 C 133.11092,65.706205 130.39582,59.63548 125.15659,57.035661 C 120.20153,54.576849 115.86223,50.35534 109.88948,50.247158 C 104.29221,50.145777 99.375315,52.438165 94.37057,54.27963 C 89.038001,56.241716 83.440226,56.876981 77.733019,57.073219 C 71.276357,57.295227 64.823598,57.644965 58.405744,57.301366 C 52.513046,56.985882 46.774255,58.566392 41.641132,61.35732 C 37.402972,63.661648 34.84386,67.776262 32.409351,71.672733 C 29.86717,75.741536 27.338667,80.092295 26.248662,84.778563 C 24.972137,90.266739 23.182185,95.863492 23.798208,101.60446 C 24.454498,107.7207 25.467981,113.80463 28.096923,119.46719 C 30.237262,124.07734 40.744235,144.90047 44.904687,149.74442 C 48.312037,153.71154 51.025906,157.85246 54.952491,161.37705 C 59.402046,165.37106 65.665028,164.91493 71.18827,164.23636 C 76.067308,165.83918 80.352636,168.75538 85.715837,169.24571 C 91.894237,169.81057 96.41566,165.40732 102.2595,165.45806 C 107.90309,166.6801 113.2702,165.3113 117.40739,161.56804 C 121.03523,158.28563 123.83457,154.00521 126.54779,149.94928 C 129.39126,145.69865 132.07312,141.19188 134.39743,136.48192 C 136.56085,132.098 140.20687,128.06554 140.06563,122.73743 C 139.83219,113.93089 141.80536,105.11465 142.2288,96.238528 C 142.51455,90.248744 140.7163,84.605923 139.74504,78.862081 C 139.22214,75.769778 138.49738,72.86956 136.55048,70.280418 z " id="path1363" sodipodi:nodetypes="csssssssssssscscsssssss" style="fill:url(#linearGradient8895);fill-opacity:1;fill-rule:evenodd;stroke:none;stroke-width:1px;stroke-linecap:butt;stroke-linejoin:miter;stroke-opacity:1"/>
      <path d="M 83.26825,142.22766 C 42.348044,138.56147 51.025906,157.85246 54.952491,161.37705 C 59.402046,165.37106 65.665028,164.91493 71.18827,164.23636 C 76.067308,165.83918 80.352636,168.75538 85.715837,169.24571 C 91.894237,169.81057 96.41566,165.40732 102.2595,165.45806 C 107.90309,166.6801 113.2702,165.3113 117.40739,161.56804 C 121.03523,158.28563 131.7164,140.64976 83.26825,142.22766 z " id="path1388" sodipodi:nodetypes="cscscsc" style="fill:url(#radialGradient8892);fill-opacity:1;fill-rule:evenodd;stroke:none;stroke-width:1px;stroke-linecap:butt;stroke-linejoin:miter;stroke-opacity:1"/>
      <path d="M 64.65804,122.37019 C 57.683592,105.59704 31.490663,106.7746 28.096923,119.46719 C 25.467981,113.80463 24.454498,107.7207 23.798208,101.60446 C 23.182185,95.863492 24.972137,90.266739 26.248662,84.778563 C 27.338667,80.092295 29.86717,75.741536 32.409351,71.672733 C 37.490285,70.416533 41.268549,70.521892 44.628256,71.97838 C 49.647946,74.154496 57.812298,78.536877 61.983808,78.8612 C 65.294919,78.898723 72.110369,75.802536 74.556434,75.600349 C 77.199838,75.381851 85.7047,75.105906 92.789314,75.397706 C 97.992627,78.094502 101.85583,82.66785 105.25473,87.324542 C 111.97501,94.460696 112.61835,106.00423 107.58762,114.25047 C 103.70038,121.9334 92.090837,125.37697 64.65804,122.37019 z " id="path1372" sodipodi:nodetypes="ccsscscscccc" style="fill:url(#radialGradient8889);fill-opacity:1;fill-rule:evenodd;stroke:none;stroke-width:1px;stroke-linecap:butt;stroke-linejoin:miter;stroke-opacity:1"/>
      <path d="M 99.062863,54.139495 C 103.13604,52.806029 107.55697,52.43651 111.80937,52.848233 C 116.00673,53.15088 118.45335,56.716779 121.67168,58.836358 C 125.95009,60.820658 123.69449,65.747244 119.8938,66.586077 C 116.5847,67.794889 115.2289,71.271618 112.39284,73.138184 C 109.87082,75.226231 106.09047,76.366354 103.12225,74.514863 C 98.980152,73.095181 94.861696,75.778693 90.64052,75.175574 C 85.858863,75.120076 81.053029,74.943881 76.296615,75.555809 C 72.090905,74.357614 68.919013,78.590325 64.815319,78.613738 C 60.058488,79.334209 55.350188,77.575238 51.404488,75.053128 C 47.607551,73.690833 44.032185,70.238456 39.80485,70.988853 C 35.776812,72.279256 40.614448,67.847583 41.211554,66.395569 C 43.543503,63.099837 47.014806,60.101352 51.307544,60.297701 C 61.976179,59.826677 72.631522,58.734586 83.311404,58.679898 C 84.075882,58.675983 93.667998,57.240278 99.062863,54.139495 z " id="path1390" sodipodi:nodetypes="cccccccccccccsc" style="fill:url(#radialGradient8885);fill-opacity:1;fill-rule:evenodd;stroke:none;stroke-width:1px;stroke-linecap:butt;stroke-linejoin:miter;stroke-opacity:1"/>
      <path d="M 84.093452,31.072861 C 85.844467,31.565391 87.042903,33.017829 88.39281,34.136952 C 89.346712,35.223896 88.313495,36.710703 87.23335,37.227888 C 86.053118,38.071614 85.308465,39.353644 84.691832,40.632727 C 83.922195,41.728879 83.113858,42.806641 82.602153,44.054301 C 81.937358,45.269002 81.378692,46.565748 81.273905,47.96187 C 81.020499,49.463343 80.90082,50.849095 80.367712,52.256696 C 80.060638,53.584927 79.880453,56.073179 79.44462,57.374643 C 78.544183,57.898734 77.0417,58.15674 76.321621,57.210307 C 76.241299,54.8544 77.530245,50.617249 78.14327,48.346107 C 78.630242,46.353659 79.112585,44.335063 80.117608,42.527512 C 81.064983,40.693601 82.041363,38.832276 82.394983,36.77559 C 82.782299,35.330588 83.121007,33.868732 83.396174,32.402035 C 83.570981,31.930904 83.843125,31.505764 84.093452,31.072861 z " id="path1460" sodipodi:nodetypes="cccccccccccccc" style="fill:url(#linearGradient13977);fill-opacity:1;fill-rule:evenodd;stroke:none;stroke-width:1px;stroke-linecap:butt;stroke-linejoin:miter;stroke-opacity:1"/>
      <path d="M 28.096923,119.46719 C 30.237262,124.07734 40.744235,144.90047 44.904687,149.74442 C 48.312037,153.71154 51.025906,157.85246 54.952491,161.37705 C 65.080382,154.82558 66.636312,129.65045 64.933707,124.59973 C 56.225177,98.766142 25.467981,113.80463 28.096923,119.46719 z " id="path1386" sodipodi:nodetypes="cscss" style="opacity:0.6373057;fill:url(#radialGradient8881);fill-opacity:1;fill-rule:evenodd;stroke:none;stroke-width:1px;stroke-linecap:butt;stroke-linejoin:miter;stroke-opacity:1"/>
      <path d="M 62.70705,62.977431 C 58.199965,62.07508 53.577911,62.069449 49.043655,61.361883 C 46.690872,61.371587 44.130332,62.385578 42.989926,64.55836 C 42.122617,66.665768 43.531275,69.14913 45.566282,69.940482 C 47.523067,71.054062 49.643311,71.848494 51.587836,72.985176 C 55.603207,74.668564 60.886596,73.239253 63.067438,69.352852 C 64.110256,67.362223 63.820768,64.873035 62.70705,62.977431 z " id="path1395" style="opacity:1;color:#000000;fill:url(#radialGradient8878);fill-opacity:1;fill-rule:evenodd;stroke:none;stroke-width:1px;stroke-linecap:butt;stroke-linejoin:miter;marker:none;marker-start:none;marker-mid:none;marker-end:none;stroke-miterlimit:4;stroke-dasharray:none;stroke-dashoffset:0;stroke-opacity:1;visibility:visible;display:inline;overflow:visible"/>
      <path d="M 88.716583,34.607113 C 88.064135,33.577366 87.114176,32.789102 86.177549,32.029031 C 85.717542,31.475117 85.008249,31.069152 84.27375,31.102314 C 83.820604,31.118833 83.460984,31.502701 83.391978,31.937323 C 83.289976,32.729051 83.329265,33.54668 83.522498,34.322652 C 83.737967,35.206873 84.306025,36.028278 85.146655,36.416076 C 86.045471,36.880661 87.131739,37.047894 88.10387,36.720496 C 88.602231,36.159305 88.956144,35.358784 88.716583,34.607113 z " id="path13230" style="fill:url(#radialGradient13987);fill-opacity:1;fill-rule:evenodd;stroke:none;stroke-width:1px;stroke-linecap:butt;stroke-linejoin:miter;stroke-opacity:1"/>
    </g>
    <g id="g19329" transform="matrix(2.276961,0,0,2.276961,-37.8774,-62.62277)">
      <path d="M 136.4111,71.78284 C 133.52818,68.64791 128.12374,66.48856 125.1324,69.51466 C 122.74185,65.71449 114.6883,66.22501 111.52189,69.94498 C 107.38546,72.1282 112.68498,79.09328 106.33746,77.56404 C 102.00369,79.0106 98.477097,82.69044 98.387557,87.25146 C 93.105467,86.72944 88.508047,93.76814 92.227157,97.95725 C 93.995087,99.38492 92.955277,99.73649 91.525197,100.71531 C 89.384627,102.97263 87.527807,111.72479 92.124617,114.72683 C 89.861547,117.90751 88.856047,124.69307 93.809027,127.19904 C 91.705227,131.63679 95.286227,137.53796 100.73494,136.03206 C 104.19214,133.77417 104.89541,141.68981 109.37139,140.19325 C 113.92526,141.3752 119.2588,139.49583 121.03991,135.18154 C 126.50794,135.47642 131.71536,134.45782 135.5999,130.45896 C 138.76616,126.0648 139.65725,120.31599 136.92674,115.46333 C 136.9444,111.00113 140.77933,107.06919 139.49668,102.11395 C 142.40625,96.76931 140.07491,90.97641 139.65585,85.43788 C 139.69495,80.74621 139.59699,75.54498 136.4111,71.78284 z " id="path1458" sodipodi:nodetypes="ccccccccccccccccc" style="fill:url(#linearGradient19339);fill-opacity:1;fill-rule:evenodd;stroke:none;stroke-width:1px;stroke-linecap:butt;stroke-linejoin:miter;stroke-opacity:1"/>
      <path d="M 105.35638,86.11102 C 101.90466,83.68047 98.991147,90.66011 95.074307,91.02116 C 91.178617,94.46772 96.808387,101.00251 100.00279,95.67099 C 103.45406,94.1977 109.36789,90.83636 105.68388,86.43098 L 105.35637,86.11102 L 105.35638,86.11102 z " id="path16263" style="opacity:1;color:#000000;fill:url(#radialGradient19341);fill-opacity:1;fill-rule:evenodd;stroke:none;stroke-width:1px;stroke-linecap:butt;stroke-linejoin:miter;marker:none;marker-start:none;marker-mid:none;marker-end:none;stroke-miterlimit:4;stroke-dasharray:none;stroke-dashoffset:0;stroke-opacity:1;visibility:visible;display:inline;overflow:visible"/>
      <path d="M 93.693197,125.54296 C 93.576147,119.44941 101.50049,125.97285 101.94687,119.90444 C 105.65943,115.66046 102.81629,125.74601 107.07717,123.64694 C 112.79386,123.60023 105.71504,132.3448 112.13886,132.44017 C 116.46006,129.85049 122.21016,136.67418 116.45714,139.24792 C 112.35526,139.57336 107.31148,141.83576 103.53997,135.36644 C 100.41059,132.14556 97.996646,139.68121 94.682026,133.62099 C 93.733176,130.98685 95.103217,128.05304 93.693197,125.54296 z " id="path16272" sodipodi:nodetypes="cccccccc" style="opacity:1;color:#000000;fill:url(#radialGradient19343);fill-opacity:1;fill-rule:evenodd;stroke:none;stroke-width:1px;stroke-linecap:butt;stroke-linejoin:miter;marker:none;marker-start:none;marker-mid:none;marker-end:none;stroke-miterlimit:4;stroke-dasharray:none;stroke-dashoffset:0;stroke-opacity:1;visibility:visible;display:inline;overflow:visible"/>
      <path d="M 113.02121,93.969411 C 108.98105,93.998878 101.55622,97.031447 102.01795,102.7257 C 103.61147,105.57469 105.8043,114.23576 110.09996,110.15415 C 111.06774,107.38406 115.02497,104.34578 113.90916,109.73068 C 112.18827,113.49899 107.1128,119.75289 114.24989,121.10897 C 120.56412,122.61085 121.22285,112.70581 121.01283,108.17675 C 120.4786,102.75221 118.79973,95.994967 113.02121,93.969411 z " id="path16274" style="opacity:0.83937833;color:#000000;fill:url(#radialGradient19345);fill-opacity:1;fill-rule:evenodd;stroke:none;stroke-width:1px;stroke-linecap:butt;stroke-linejoin:miter;marker:none;marker-start:none;marker-mid:none;marker-end:none;stroke-miterlimit:4;stroke-dasharray:none;stroke-dashoffset:0;stroke-opacity:1;visibility:visible;display:inline;overflow:visible"/>
      <path d="M 125.62353,130.46929 C 122.04482,128.07206 121.62583,122.814 119.24368,120.31498 C 112.67875,122.88237 122.11922,127.42977 122.18193,131.4253 C 123.09229,132.46908 125.7985,132.35953 125.62353,130.46929 z " id="path16276" style="opacity:0.74093263;color:#000000;fill:url(#radialGradient19347);fill-opacity:1;fill-rule:evenodd;stroke:none;stroke-width:1px;stroke-linecap:butt;stroke-linejoin:miter;marker:none;marker-start:none;marker-mid:none;marker-end:none;stroke-miterlimit:4;stroke-dasharray:none;stroke-dashoffset:0;stroke-opacity:1;visibility:visible;display:inline;overflow:visible"/>
      <path d="M 137.76308,75.298 C 127.57945,81.08617 126.55774,88.923327 125.67319,91.416814 C 123.99167,96.156942 119.30555,110.27424 120.11672,115.7673 C 120.50499,118.39662 130.61058,127.33471 137.19909,125.76942 C 138.87816,121.91605 138.30527,120.45119 136.92674,115.46333 C 136.9444,111.00113 140.77933,107.06919 139.49668,102.11395 C 142.40625,96.76931 140.07491,90.97641 139.65585,85.43788 C 139.69495,80.74621 140.94897,79.06014 137.76308,75.298 z " id="path17109" sodipodi:nodetypes="cssccccc" style="opacity:0.90673577;fill:url(#linearGradient19349);fill-opacity:1;fill-rule:evenodd;stroke:none;stroke-width:1px;stroke-linecap:butt;stroke-linejoin:miter;stroke-opacity:1"/>
      <path d="M 136.95068,76.643832 C 131.78927,78.382442 128.19357,82.081562 128.66178,87.753992 C 126.75587,91.214352 130.13759,91.959372 130.6411,88.115802 C 132.35158,83.561952 138.06965,83.000282 140.11466,79.337372 C 139.94811,77.866762 138.49141,76.426722 136.95068,76.643832 z " id="path16266" style="opacity:1;color:#000000;fill:url(#radialGradient19351);fill-opacity:1;fill-rule:evenodd;stroke:none;stroke-width:1px;stroke-linecap:butt;stroke-linejoin:miter;marker:none;marker-start:none;marker-mid:none;marker-end:none;stroke-miterlimit:4;stroke-dasharray:none;stroke-dashoffset:0;stroke-opacity:1;visibility:visible;display:inline;overflow:visible"/>
      <path d="M 120.11672,115.7673 C 120.77821,118.43505 129.03459,120.31633 135.6231,118.75104 C 137.30217,114.89767 138.30527,120.45119 136.92674,115.46333 C 136.9444,111.00113 140.77933,107.06919 139.49668,102.11395 C 140.95146,99.44163 138.39699,105.85616 132.98157,109.275 C 127.56616,112.69384 119.44855,113.07259 120.11672,115.7673 z " id="path18565" sodipodi:nodetypes="cccccs" style="opacity:1;color:#000000;fill:url(#radialGradient19353);fill-opacity:1;fill-rule:evenodd;stroke:none;stroke-width:1px;stroke-linecap:butt;stroke-linejoin:miter;marker:none;marker-start:none;marker-mid:none;marker-end:none;stroke-miterlimit:4;stroke-dasharray:none;stroke-dashoffset:0;stroke-opacity:1;visibility:visible;display:inline;overflow:visible"/>
    </g>
    <g id="g22409" transform="translate(-129.157,-40.06377)">
      <path d="M 357.76671,204.98835 C 353.42302,207.29322 351.25237,211.70154 348.98884,215.92355 C 345.46223,222.50146 347.52912,230.22766 352.83189,235.59563 C 356.75859,239.57061 362.32623,238.73021 366.04328,235.39512 C 371.49602,230.50271 374.06678,223.00603 373.9012,216.1155 C 373.80803,212.23785 372.46312,206.73474 368.51132,204.82327 C 365.87609,203.54863 360.52155,203.52657 357.76671,204.98835 z " id="path21657" sodipodi:nodetypes="cssssss" style="opacity:1;color:#000000;fill:url(#linearGradient22430);fill-opacity:1;fill-rule:evenodd;stroke:none;stroke-width:2.27696109px;stroke-linecap:butt;stroke-linejoin:miter;marker:none;marker-start:none;marker-mid:none;marker-end:none;stroke-miterlimit:4;stroke-dasharray:none;stroke-dashoffset:0;stroke-opacity:1;visibility:visible;display:inline;overflow:visible"/>
      <path d="M 356.17879,207.58649 C 352.70868,209.42783 350.97457,212.94957 349.16626,216.32249 C 346.3489,221.5775 348.0001,227.74987 352.23642,232.03828 C 355.37343,235.21384 359.82134,234.54246 362.79084,231.8781 C 367.14698,227.9696 369.20072,221.98059 369.06845,216.47584 C 368.99401,213.37802 367.91958,208.98165 364.76253,207.4546 C 362.65728,206.43632 358.37961,206.4187 356.17879,207.58649 z " id="path21665" sodipodi:nodetypes="cssssss" style="fill:#6c4343;fill-opacity:1;fill-rule:evenodd;stroke:none;stroke-width:0.9999994px;stroke-linecap:butt;stroke-linejoin:miter;stroke-opacity:1"/>
      <path d="M 348.90437,216.85323 C 348.0108,218.70215 346.64033,223.10933 349.45202,228.2915 C 351.68758,229.83471 355.16526,231.24278 358.02582,230.45152 C 359.90334,229.73964 357.87665,222.9891 359.29124,220.16161 C 360.89151,216.96295 362.89707,215.60318 366.35988,214.1954 C 367.99052,212.70596 364.15283,208.3025 360.84676,207.5283 C 358.73923,206.45503 357.47027,207.28337 356.56699,207.4415 C 353.16254,208.715 350.66456,213.30665 348.90437,216.85323 z " id="path21653" sodipodi:nodetypes="cccscccc" style="opacity:1;fill:url(#radialGradient22432);fill-opacity:1;fill-rule:evenodd;stroke:none;stroke-width:1px;stroke-linecap:butt;stroke-linejoin:miter;stroke-opacity:1"/>
      <path d="M 352.42433,222.32062 C 351.97714,225.19451 352.4684,231.76036 357.64076,233.77872 C 360.17139,234.76622 364.47421,235.64741 367.076,234.21927 C 368.73938,233.09454 365.21401,226.99134 365.94015,223.91425 C 366.76161,220.43323 368.40054,218.64853 371.44658,216.48185 C 372.69082,214.65721 367.943,211.25478 364.5475,211.26195 C 358.691,211.2743 353.55696,215.04204 352.42433,222.32062 z " id="path21649" sodipodi:nodetypes="cscscss" style="fill:url(#radialGradient22434);fill-opacity:1;fill-rule:evenodd;stroke:none;stroke-width:1px;stroke-linecap:butt;stroke-linejoin:miter;stroke-opacity:1"/>
      <path d="M 360.76027,227.10914 C 360.94154,230.01196 362.83321,236.31856 368.31859,237.17744 C 371.00237,237.59766 375.39402,237.53295 377.62784,235.57874 C 379.01044,234.12264 374.25512,228.92031 374.30258,225.75906 C 374.35627,222.18283 375.57308,220.08744 378.08194,217.31644 C 378.9047,215.26692 373.5363,212.96506 370.22177,213.70222 C 364.50494,214.97367 360.30122,219.75727 360.76027,227.10914 z " id="path21641" sodipodi:nodetypes="cscscss" style="fill:url(#radialGradient22436);fill-opacity:1;fill-rule:evenodd;stroke:none;stroke-width:1px;stroke-linecap:butt;stroke-linejoin:miter;stroke-opacity:1"/>
      <path d="M 370.06067,228.7743 C 370.45181,231.65635 372.79551,237.80929 378.3287,238.26842 C 381.03588,238.49306 385.41129,238.11029 387.49763,235.99934 C 388.77108,234.44688 383.65128,229.60282 383.46954,226.44644 C 383.26394,222.87572 384.32572,220.69767 386.62718,217.75215 C 387.29926,215.6484 381.77818,213.7416 378.52578,214.71701 C 372.91611,216.39938 369.07008,221.47502 370.06067,228.7743 z " id="path21637" sodipodi:nodetypes="cscscss" style="fill:url(#radialGradient22438);fill-opacity:1;fill-rule:evenodd;stroke:none;stroke-width:1px;stroke-linecap:butt;stroke-linejoin:miter;stroke-opacity:1"/>
      <path d="M 380.3273,229.0674 C 380.98935,231.89952 383.90467,237.80313 389.45648,237.7367 C 392.17277,237.7042 396.49234,236.90919 398.3696,234.61032 C 399.49046,232.94434 393.93533,228.6064 393.45578,225.48137 C 392.91327,221.94612 393.76423,219.67738 395.77669,216.52733 C 396.24671,214.36943 390.56999,212.99353 387.42447,214.27228 C 381.99913,216.47784 378.65056,221.89459 380.3273,229.0674 z " id="path20094" sodipodi:nodetypes="cscscss" style="fill:url(#radialGradient22440);fill-opacity:1;fill-rule:evenodd;stroke:none;stroke-width:1px;stroke-linecap:butt;stroke-linejoin:miter;stroke-opacity:1"/>
      <path d="M 390.10537,228.46138 C 391.131,231.18302 394.79112,236.65616 400.28688,235.86648 C 402.97575,235.48013 407.1548,234.12874 408.71633,231.60475 C 409.61042,229.80685 403.53715,226.23019 402.65426,223.19435 C 401.65549,219.76001 402.2034,217.39967 403.78799,214.01414 C 403.97267,211.81339 398.16502,211.18933 395.21307,212.86726 C 390.12158,215.76132 387.50779,221.5684 390.10537,228.46138 z " id="path20081" sodipodi:nodetypes="cscscss" style="fill:url(#radialGradient22442);fill-opacity:1;fill-rule:evenodd;stroke:none;stroke-width:1px;stroke-linecap:butt;stroke-linejoin:miter;stroke-opacity:1"/>
      <path d="M 400.85252,226.07868 C 402.30656,228.5976 406.80698,233.40364 412.10153,231.73186 C 414.69195,230.91393 418.59603,228.90177 419.72691,226.15767 C 420.31712,224.23844 413.74359,221.69563 412.37937,218.84349 C 410.83608,215.61695 410.99337,213.19897 412.00708,209.60104 C 411.83188,207.39951 405.99998,207.72696 403.35973,209.86204 C 398.80587,213.5446 397.16993,219.69909 400.85252,226.07868 z " id="path20090" sodipodi:nodetypes="cscscss" style="fill:url(#radialGradient22444);fill-opacity:1;fill-rule:evenodd;stroke:none;stroke-width:1px;stroke-linecap:butt;stroke-linejoin:miter;stroke-opacity:1"/>
      <path d="M 410.34971,222.22905 C 412.32861,224.36051 417.78704,228.04254 422.57578,225.2327 C 424.91871,223.85796 428.27609,221.02623 428.76688,218.09909 C 428.91446,216.09659 421.93953,215.08295 419.97392,212.60663 C 417.75027,209.80525 417.36466,207.41303 417.55091,203.67966 C 416.88941,201.57257 411.27721,203.19168 409.17928,205.86153 C 405.56079,210.46647 405.33779,216.83077 410.34971,222.22905 z " id="path20836" sodipodi:nodetypes="cscscss" style="fill:url(#radialGradient22446);fill-opacity:1;fill-rule:evenodd;stroke:none;stroke-width:1.00000036px;stroke-linecap:butt;stroke-linejoin:miter;stroke-opacity:1"/>
      <path d="M 433.14079,205.96918 C 434.81756,204.64519 436.50258,203.25712 438.53338,202.51104 C 439.67846,201.93574 440.80645,201.2615 442.10237,201.09499 C 443.11973,200.88336 445.07271,200.52657 445.20545,200.83237 C 445.30538,201.06258 443.56657,201.33175 442.78056,201.67542 C 441.68794,201.90904 440.74224,202.48883 439.78872,203.03912 C 438.71729,203.57911 437.96906,204.54053 437.07095,205.30642 C 436.54314,206.15231 435.54609,206.61633 434.55507,206.48051 C 434.05195,206.42184 433.51004,206.35071 433.14079,205.96918 z " id="path21624" sodipodi:nodetypes="cccscccsc" style="fill:#271515;fill-opacity:1;fill-rule:evenodd;stroke:none;stroke-width:1px;stroke-linecap:butt;stroke-linejoin:miter;stroke-opacity:1"/>
      <path d="M 434.91603,201.4972 C 435.10164,200.64639 435.7685,200.06784 436.3578,199.45259 C 437.21484,198.55776 437.90008,198.55358 438.84115,197.84902 C 439.37888,197.44642 440.97301,197.14067 440.2367,197.72238 C 439.43082,198.24191 438.3855,198.83895 437.79018,199.66573 C 437.14023,200.56836 436.77622,201.75383 435.73985,202.31212 C 435.26489,202.47038 434.45203,202.04787 434.91603,201.4972 z " id="path21628" sodipodi:nodetypes="csscscc" style="fill:#271515;fill-opacity:1;fill-rule:evenodd;stroke:none;stroke-width:1px;stroke-linecap:butt;stroke-linejoin:miter;stroke-opacity:1"/>
      <path d="M 419.31252,216.34849 C 421.74309,217.94583 427.92276,220.21815 431.90214,216.34623 C 433.84909,214.45187 438.31238,209.4389 435.58464,205.64408 C 435.24985,203.66426 428.86098,206.64193 426.36099,204.70652 C 423.5328,202.51706 424.04871,200.2861 423.33821,196.61623 C 420.31366,194.72802 415.66791,197.64024 414.2681,200.73377 C 411.85371,206.06946 413.15668,212.30294 419.31252,216.34849 z " id="path20840" sodipodi:nodetypes="cscscss" style="fill:url(#radialGradient22448);fill-opacity:1;fill-rule:evenodd;stroke:none;stroke-width:1.00000036px;stroke-linecap:butt;stroke-linejoin:miter;stroke-opacity:1"/>
      <path d="M 421.46077,195.95909 C 419.84206,197.32596 421.5,200.38133 423.05027,202.27592 C 424.81398,204.43135 426.54399,207.09966 429.48499,207.48258 C 431.95249,207.80386 435.88321,209.68871 437.30382,206.74919 C 438.5462,204.17851 438.14212,202.61969 437.81805,200.04932 C 437.582,198.17708 435.3176,194.56612 432.64819,195.32087 C 428.96708,196.36168 424.03484,193.78549 421.46077,195.95909 z " id="path20852" sodipodi:nodetypes="cssssss" style="fill:url(#radialGradient22450);fill-opacity:1;fill-rule:evenodd;stroke:none;stroke-width:1px;stroke-linecap:butt;stroke-linejoin:miter;stroke-opacity:1"/>
      <path d="M 402.95298 168.04958 A 2.2465944 1.625196 0 1 1  398.4598,168.04958 A 2.2465944 1.625196 0 1 1  402.95298 168.04958 z" id="path20881" sodipodi:cx="400.70639" sodipodi:cy="168.04958" sodipodi:rx="2.2465944" sodipodi:ry="1.625196" sodipodi:type="arc" style="opacity:0.6373057;color:#000000;fill:url(#radialGradient22452);fill-opacity:1;fill-rule:evenodd;stroke:none;stroke-width:1px;stroke-linecap:butt;stroke-linejoin:miter;marker:none;marker-start:none;marker-mid:none;marker-end:none;stroke-miterlimit:4;stroke-dasharray:none;stroke-dashoffset:0;stroke-opacity:1;visibility:visible;display:inline;overflow:visible" transform="matrix(1.153285,0,0,1.153285,-34.16215,4.290428)"/>
      <path d="M 428.16553,196.83856 C 428.07269,196.7964 427.79604,196.7606 427.58082,196.7606 C 427.38455,196.7606 427.17654,196.8032 427.0351,196.83856 C 426.87657,196.87819 426.70269,196.96578 426.56733,197.03347 C 426.42245,197.10591 426.29718,197.14769 426.17752,197.26734 C 426.0355,197.40937 425.98632,197.48643 425.94364,197.65715 C 425.89382,197.85641 426.18563,197.93407 426.33344,198.00798 C 426.54756,198.11504 426.62386,198.15319 426.80122,198.24186 C 426.92225,198.30238 426.99816,198.0839 427.07408,198.00798 C 427.20036,197.8817 427.2976,197.81825 427.46388,197.73511 C 427.62345,197.65533 427.6875,197.52585 427.81471,197.46225 C 427.95645,197.39138 428.12237,197.38533 428.28247,197.3453 C 428.49421,197.29237 428.56197,197.26072 428.67228,197.1504 C 428.74445,197.07823 428.2344,196.8661 428.16553,196.83856 z " id="path20891" style="fill:#9f9f9f;fill-opacity:1;fill-rule:evenodd;stroke:none;stroke-width:1px;stroke-linecap:butt;stroke-linejoin:miter;stroke-opacity:1"/>
      <path d="M 432.97258,207.78379 C 434.64935,206.45982 436.33437,205.07174 438.36517,204.32565 C 439.51025,203.75035 440.63825,203.07613 441.93416,202.90962 C 442.95152,202.69798 445.05893,202.40972 445.03725,202.64699 C 445.01417,202.8995 443.49084,203.23886 442.70484,203.58252 C 441.61223,203.81614 440.57403,204.48843 439.62052,205.03872 C 438.54908,205.57871 437.80086,206.35514 436.90275,207.12104 C 436.37493,207.96691 435.3779,208.43096 434.38688,208.29512 C 433.88375,208.23647 433.34183,208.16533 432.97258,207.78379 z " id="path20893" sodipodi:nodetypes="cccscccsc" style="fill:#271515;fill-opacity:1;fill-rule:evenodd;stroke:none;stroke-width:1px;stroke-linecap:butt;stroke-linejoin:miter;stroke-opacity:1"/>
      <path d="M 435.05979,201.12511 C 435.44663,200.34493 436.23413,199.94582 436.95529,199.49226 C 438.00413,198.83259 438.66986,198.9951 439.75396,198.54042 C 440.37342,198.28061 441.99404,198.37149 441.13843,198.75679 C 440.23042,199.06486 439.07134,199.38989 438.29292,200.04717 C 437.44305,200.76475 436.8018,201.82619 435.66083,202.11583 C 435.16162,202.1539 434.47585,201.54647 435.05979,201.12511 z " id="path21635" sodipodi:nodetypes="csscscc" style="fill:#271515;fill-opacity:1;fill-rule:evenodd;stroke:none;stroke-width:1px;stroke-linecap:butt;stroke-linejoin:miter;stroke-opacity:1"/>
      <path d="M 356.17879,207.58649 C 352.70868,209.42783 350.97457,212.94957 349.16626,216.32249 C 346.3489,221.5775 348.0001,227.74987 352.23642,232.03828 C 355.37343,235.21384 351.98726,231.56759 350.36287,226.14211 C 348.65328,220.43206 352.65259,213.19616 357.11848,209.97505 C 362.78002,206.30363 369.16238,211.08484 364.76253,207.4546 C 362.65728,206.43632 358.37961,206.4187 356.17879,207.58649 z " id="path22407" sodipodi:nodetypes="cscsccs" style="opacity:0.6010361;fill:#6e4545;fill-opacity:1;fill-rule:evenodd;stroke:none;stroke-width:0.9999994px;stroke-linecap:butt;stroke-linejoin:miter;stroke-opacity:1"/>
    </g>
  </g>
  <metadata>
    <rdf:RDF>
      <cc:Work>
        <dc:format>image/svg+xml</dc:format>
        <dc:type rdf:resource="http://purl.org/dc/dcmitype/StillImage"/>
        <cc:license rdf:resource="http://creativecommons.org/licenses/publicdomain/"/>
        <dc:publisher>
          <cc:Agent rdf:about="http://openclipart.org/">
            <dc:title>Open Clip Art Library</dc:title>
          </cc:Agent>
        </dc:publisher>
        <dc:title>apple with worm dan ger 01r</dc:title>
        <dc:date>2011-02-16T17:34:34</dc:date>
        <dc:description>originally uploaded by Dan Gerhards for OCAL 0.18</dc:description>
        <dc:source>http://openclipart.org/detail/118765/apple-with-worm-dan-ger-01r-by-anonymous</dc:source>
        <dc:creator>
          <cc:Agent>
            <dc:title>Anonymous</dc:title>
          </cc:Agent>
        </dc:creator>
        <dc:subject>
          <rdf:Bag>
            <rdf:li>apple</rdf:li>
            <rdf:li>clip art</rdf:li>
            <rdf:li>clipart</rdf:li>
            <rdf:li>food</rdf:li>
            <rdf:li>fruit</rdf:li>
            <rdf:li>nature</rdf:li>
            <rdf:li>plant</rdf:li>
            <rdf:li>worm</rdf:li>
          </rdf:Bag>
        </dc:subject>
      </cc:Work>
      <cc:License rdf:about="http://creativecommons.org/licenses/publicdomain/">
        <cc:permits rdf:resource="http://creativecommons.org/ns#Reproduction"/>
        <cc:permits rdf:resource="http://creativecommons.org/ns#Distribution"/>
        <cc:permits rdf:resource="http://creativecommons.org/ns#DerivativeWorks"/>
      </cc:License>
    </rdf:RDF>
  </metadata>
</svg>